HIERARCHY
ROOT Hips
{
	OFFSET -3.958830 18.904000 13.208200
	CHANNELS 6 Xposition Yposition Zposition Zrotation Yrotation Xrotation 
	JOINT LHipJoint
	{
		OFFSET 0.000000 0.000000 0.000000
		CHANNELS 3 Zrotation Yrotation Xrotation
		JOINT LeftUpLeg
		{
			OFFSET 1.800000 -1.400000 0.085000
			CHANNELS 3 Zrotation Yrotation Xrotation
			JOINT LeftLeg
			{
				OFFSET 2.215000 -6.000000 0.000000
				CHANNELS 3 Zrotation Yrotation Xrotation
				JOINT LeftFoot
				{
					OFFSET 2.500000 -6.900000 0.000000
					CHANNELS 3 Zrotation Yrotation Xrotation
					JOINT LeftToeBase
					{
						OFFSET 0.200000 -0.500000 1.950000
						CHANNELS 3 Zrotation Yrotation Xrotation
						End Site
						{
							OFFSET 0.000000 0.000000 0.000000
						}
					}
				}
			}
		}
	}
	JOINT RHipJoint
	{
		OFFSET 0.000000 0.000000 0.000000
		CHANNELS 3 Zrotation Yrotation Xrotation
		JOINT RightUpLeg
		{
			OFFSET -1.800000 -1.400000 0.085000
			CHANNELS 3 Zrotation Yrotation Xrotation
			JOINT RightLeg
			{
				OFFSET -2.215000 -6.000000 0.000000
				CHANNELS 3 Zrotation Yrotation Xrotation
				JOINT RightFoot
				{
					OFFSET -2.500000 -6.900000 0.000000
					CHANNELS 3 Zrotation Yrotation Xrotation
					JOINT RightToeBase
					{
						OFFSET -0.200000 -0.500000 1.950000
						CHANNELS 3 Zrotation Yrotation Xrotation
						End Site
						{
							OFFSET 0.000000 0.000000 0.000000
						}
					}
				}
			}
		}
	}
	JOINT LowerBack
	{
		OFFSET 0.000000 0.000000 0.000000
		CHANNELS 3 Zrotation Yrotation Xrotation
		JOINT Spine
		{
			OFFSET -0.087000 1.940000 -0.288900
			CHANNELS 3 Zrotation Yrotation Xrotation
			JOINT Spine1
			{
				OFFSET 0.000000 1.950000 0.060000
				CHANNELS 3 Zrotation Yrotation Xrotation
				JOINT Neck
				{
					OFFSET 0.000000 0.000000 0.000000
					CHANNELS 3 Zrotation Yrotation Xrotation
					JOINT Neck1
					{
						OFFSET 0.000000 1.600000 0.340000
						CHANNELS 3 Zrotation Yrotation Xrotation
						JOINT Head
						{
							OFFSET 0.000000 1.667000 -0.240000
							CHANNELS 3 Zrotation Yrotation Xrotation
							End Site
							{
								OFFSET 0.000000 0.000000 0.000000
							}
						}
					}
				}
				JOINT LeftShoulder
				{
					OFFSET 0.000000 0.000000 0.000000
					CHANNELS 3 Zrotation Yrotation Xrotation
					JOINT LeftArm
					{
						OFFSET 2.700000 1.550000 -0.730000
						CHANNELS 3 Zrotation Yrotation Xrotation
						JOINT LeftForeArm
						{
							OFFSET 5.450000 0.000000 0.000000
							CHANNELS 3 Zrotation Yrotation Xrotation
							JOINT LeftHand
							{
								OFFSET 3.450000 0.000000 0.000000
								CHANNELS 3 Zrotation Yrotation Xrotation
								JOINT LeftHandIndex1
								{
									OFFSET 0.750000 0.000000 0.000000
									CHANNELS 3 Zrotation Yrotation Xrotation
									End Site
									{
										OFFSET 0.000000 0.000000 0.000000
									}
								}
							}
						}
					}
				}
				JOINT RightShoulder
				{
					OFFSET 0.000000 0.000000 0.000000
					CHANNELS 3 Zrotation Yrotation Xrotation
					JOINT RightArm
					{
						OFFSET -2.700000 1.550000 -0.730000
						CHANNELS 3 Zrotation Yrotation Xrotation
						JOINT RightForeArm
						{
							OFFSET -5.450000 0.000000 0.000000
							CHANNELS 3 Zrotation Yrotation Xrotation
							JOINT RightHand
							{
								OFFSET -3.450000 0.000000 0.000000
								CHANNELS 3 Zrotation Yrotation Xrotation
								JOINT RightHandIndex1
								{
									OFFSET -0.750000 0.000000 0.000000
									CHANNELS 3 Zrotation Yrotation Xrotation
									End Site
									{
										OFFSET 0.000000 0.000000 0.000000
									}
								}
							}
						}
					}
				}
			}
		}
	}
}
MOTION
Frames: 14
Frame Time: 0.016667
1.525790 12.859300 -1.808860 -65.644477 42.886568 -47.840991 -15.697261 11.214112 6.713816 -17.376343 -20.162060 -38.295711 -17.437130 8.673939 26.224803 -0.227836 5.383499 2.889543 0.187780 -0.088520 -0.031360 18.143652 -9.588467 1.960591 -15.037915 4.458099 -31.830280 -22.032522 3.559698 61.968468 -1.356215 -9.239220 1.432505 -0.013080 0.758910 0.128580 -2.004847 -3.759352 -8.641414 3.208128 3.476233 56.332270 0.431959 4.644410 22.695501 7.090282 0.782645 -15.585429 1.562019 -0.136865 32.966890 15.847010 -4.702120 -15.991060 -2.259302 -37.829187 13.176933 -11.442856 -22.013066 4.832883 5.476509 2.659992 -0.796603 -4.100526 2.358999 0.628940 0.185560 -0.138920 0.328950 -11.524308 43.872300 6.796544 -52.925144 33.712549 -29.728700 -78.234246 43.291621 -26.682872 2.206634 -0.856119 -0.414760 0.659360 0.173740 0.005120 
1.565870 12.843830 -1.736460 -70.045603 43.542859 -50.289183 -15.685155 10.496478 7.556131 -17.252417 -24.571647 -42.269619 -11.486229 8.803424 37.780359 -0.007733 6.673203 2.457401 0.230680 -0.035470 -0.064200 18.275265 -9.825110 1.439081 -13.190828 1.472748 -30.075933 -24.273133 3.226413 58.405665 -1.284055 -8.918783 1.549611 0.049500 0.796900 0.076420 -2.133054 -3.129349 -8.743933 4.920117 0.548993 53.383967 1.160492 3.604427 24.861076 6.724876 -0.909723 -15.409549 -1.034465 -0.454939 31.567603 18.017750 -5.928270 -16.452400 1.564805 -35.198251 11.080976 -15.980792 -25.481269 5.942084 8.417500 2.151855 -0.864531 -4.079877 2.453200 0.627580 0.173090 -0.179070 0.383940 -13.953473 41.843470 11.221708 -57.551520 35.495509 -30.433272 -83.746521 39.685496 -26.259878 2.213424 -0.838251 -0.452900 0.713730 0.151100 0.022540 
1.615210 12.862320 -1.732870 -67.627641 43.246596 -49.172886 -15.729410 9.403390 8.667465 -17.041165 -30.113351 -49.119553 0.313058 6.676732 54.644892 0.519798 8.835123 1.750962 0.324480 0.114030 -0.143960 18.469710 -9.760447 0.931236 -14.025333 -0.398106 -29.393543 -24.755293 2.594807 53.768049 -1.124383 -8.299765 1.748667 0.137360 0.835640 0.066790 -2.193869 -2.354899 -8.993660 3.561460 1.036076 53.312641 0.580612 5.292210 26.874999 5.991360 -2.310962 -15.234434 -2.882378 -0.869499 29.357814 21.705960 -7.620940 -15.976780 3.821294 -32.148694 7.960892 -16.429733 -29.338464 6.953122 7.970496 1.672182 -0.871685 -4.072481 2.559231 0.552430 0.162810 -0.202100 0.497520 -14.627055 40.312788 15.940040 -64.093222 34.684923 -30.128542 -86.642961 37.398399 -23.533900 2.236273 -0.848952 -0.402600 0.707080 0.084540 0.111440 
1.689160 12.839020 -1.701660 -62.475804 36.550564 -47.896179 -15.689989 9.357412 8.275943 -12.396636 -28.503081 -54.237841 5.435933 7.774393 70.779875 1.194686 11.967335 0.811747 0.283460 0.115410 -0.214330 18.498532 -9.880151 1.026479 -12.363141 1.073071 -28.987718 -21.345631 1.386184 50.936505 -0.913387 -7.514126 2.020565 0.142630 0.885120 0.032350 -2.865505 -0.772573 -9.066197 5.750703 1.388168 54.473873 -3.677141 8.516923 28.008778 6.382197 -4.060569 -15.248949 -5.055947 -1.094665 28.057910 22.186450 -7.817040 -16.179420 3.690491 -29.046525 5.727837 -15.533282 -31.566617 7.950141 5.134262 3.115169 -0.680450 -4.169997 2.440027 0.529220 0.175640 -0.222950 0.510880 -15.241018 39.095055 18.986463 -67.695111 34.451897 -29.559611 -93.416970 31.038029 -20.477541 2.337580 -0.731646 -0.424050 0.761670 0.109770 0.144070 
1.762740 12.829300 -1.641850 -58.502724 30.708709 -47.836340 -15.543500 9.492838 7.536076 -10.289447 -24.334621 -54.535972 7.405644 9.118250 77.054155 1.483265 13.268178 0.457406 0.264210 0.131010 -0.274920 18.557923 -10.185670 1.257969 -11.654601 2.621181 -28.601987 -16.510539 -0.372799 49.447538 -0.752513 -6.962877 2.229041 0.150700 0.945930 0.019160 -3.549072 0.808232 -9.059334 8.030614 1.816268 54.974998 -8.078426 11.353055 29.162136 7.014325 -5.223225 -15.164449 -6.046371 -0.413910 27.416297 23.260570 -7.448960 -15.729560 2.873453 -26.823374 4.549595 -13.401808 -31.944658 7.872094 2.769411 3.620456 -0.643959 -4.240017 2.363482 0.499830 0.201560 -0.241640 0.538620 -15.574176 38.668458 20.128942 -70.334556 35.212849 -28.230553 -96.552569 24.772093 -14.801775 2.436930 -0.477547 -0.429360 0.807340 0.126210 0.179900 
1.779960 12.843530 -1.635450 -56.826772 26.643121 -48.590358 -15.406761 9.645832 6.960898 -9.648324 -21.062283 -53.320852 8.348217 9.747505 78.413014 1.468740 13.746079 0.329063 0.090390 -0.083250 -0.366870 18.626072 -10.297704 1.571799 -11.621369 4.015549 -29.115329 -11.184209 -2.756134 49.746379 -0.669668 -6.837049 2.268589 0.041920 1.095540 0.050700 -3.962943 1.584423 -9.061773 9.747813 1.778647 56.121656 -10.560515 12.356512 28.457958 6.948284 -7.187870 -15.171383 -8.963962 2.115753 26.798124 23.986130 -5.543790 -15.692160 2.949509 -25.684984 4.847020 -13.069089 -30.985221 7.910508 1.798847 3.189686 -0.760908 -4.350818 2.202166 0.572360 0.270110 -0.273630 0.476780 -15.551257 39.545160 19.917070 -72.245154 37.152364 -27.253516 -97.835741 21.346399 -10.568417 2.389385 -0.044302 -0.525380 0.913190 0.294370 0.165920 
1.792500 12.851270 -1.673910 -57.976869 23.783218 -50.773219 -15.293254 9.661105 6.627069 -8.466808 -19.486423 -52.019877 7.909743 10.420922 78.901384 1.510887 13.958301 0.310914 -0.124330 -0.414760 -0.397460 18.690535 -10.299000 1.878721 -11.974210 4.786315 -28.906167 -2.776113 -7.213878 49.580602 -0.621100 -7.028303 2.268073 -0.171300 1.099190 0.012550 -4.254502 2.113185 -9.193216 12.960488 -0.512952 58.860420 -13.339505 11.605870 25.541668 7.476808 -8.028183 -15.923148 -10.628477 1.872707 27.463841 22.607320 -5.619960 -12.775260 2.624896 -25.413309 6.081760 -13.708022 -28.765046 7.097004 2.068425 1.138906 -0.730735 -4.269125 2.148940 0.667340 0.284830 -0.316450 0.392830 -16.157379 40.050718 20.285854 -74.330425 38.762437 -26.201567 -98.682452 17.163549 -6.124144 2.361264 0.324734 -0.628050 0.884870 0.375140 0.073520 
1.790590 12.824140 -1.700950 -59.871010 21.985021 -51.357673 -15.169912 9.405912 6.156342 -6.622488 -17.670769 -51.217380 5.289755 11.506035 74.760258 1.316640 13.454291 0.419676 -0.178760 -0.493070 -0.401100 18.825828 -9.929567 2.592918 -14.317282 6.874189 -31.202880 8.521238 -12.806855 49.325252 -0.806042 -7.990691 1.931040 -0.216750 1.116210 0.035550 -4.633547 2.616724 -9.422343 17.160338 -2.953519 58.394724 -16.382684 10.169521 24.815983 8.417797 -8.230843 -16.537365 -11.350195 2.252537 27.471578 20.650250 -5.056590 -12.396130 1.748568 -25.885304 6.597692 -12.556792 -26.931610 6.410700 1.695565 0.809126 -0.789827 -4.300975 2.112443 0.673120 0.309570 -0.329010 0.349870 -16.790217 39.352962 19.814942 -74.587906 38.770923 -29.185337 -100.079817 17.666491 -8.359155 2.377747 0.289090 -0.638530 0.880510 0.427150 0.059190 
1.736160 12.818200 -1.708970 -61.042169 24.867092 -49.270606 -15.217877 8.869283 5.921073 -7.570550 -18.534836 -50.171422 2.648136 11.681376 68.717677 1.086439 12.471291 0.682459 -0.055560 -0.306230 -0.409380 18.903102 -8.875619 3.637976 -23.951545 6.826504 -35.949530 25.770915 -19.516577 43.365289 -1.135919 -9.341436 1.435253 -0.084050 1.161140 0.097240 -4.664328 2.109292 -9.795246 15.949632 -2.953324 54.532025 -16.046129 8.417395 26.086702 8.474321 -8.588833 -16.404682 -12.240575 4.493098 27.010077 19.206440 -3.878120 -10.838380 0.488042 -26.024873 6.562780 -10.440516 -25.579553 6.003123 0.747582 1.033662 -0.860971 -4.372181 2.201995 0.557070 0.368100 -0.347130 0.413700 -15.218354 38.674527 19.126263 -75.897826 40.032302 -32.238974 -98.776896 19.112753 -10.301666 2.323887 0.073035 -0.564010 0.866270 0.393340 0.124680 
1.723130 12.793630 -1.723420 -58.901965 25.491276 -46.318245 -15.312815 8.780106 5.639484 -7.956457 -17.863796 -49.550326 0.909877 12.237339 64.570798 0.856764 11.881902 0.807120 0.064180 -0.196110 -0.330390 18.886656 -8.005127 4.544326 -31.485005 6.682829 -39.389692 38.499535 -20.668482 35.083603 -1.269176 -9.530584 1.330335 0.019350 1.126780 0.162150 -4.426461 1.182657 -9.959913 12.306749 -1.161123 51.401868 -15.471608 7.759459 26.815101 8.922126 -8.416760 -16.609077 -12.616986 6.145995 27.687026 15.948480 -2.338020 -10.332630 -1.651069 -25.209857 6.789332 -11.147664 -22.751163 5.246523 2.985583 -0.016746 -1.024271 -4.387489 2.328109 0.538470 0.399200 -0.344160 0.427550 -14.033622 37.501135 18.273850 -77.841752 41.792018 -39.458328 -95.250707 24.439097 -16.061336 2.198411 -0.133632 -0.535560 0.816810 0.360730 0.097360 
1.675490 12.737670 -1.728310 -58.098332 26.011431 -43.641277 -15.398831 8.239785 5.872815 -10.340789 -19.477846 -53.653792 8.898904 8.792562 71.666101 1.035013 12.639188 0.526838 0.167170 -0.122380 -0.193590 18.968316 -7.072893 5.203674 -37.550502 5.790414 -41.655465 50.782561 -18.413481 24.185405 -1.348536 -9.126079 1.383546 0.058230 1.034350 0.272570 -4.296462 0.647667 -10.358679 11.178586 -0.956323 48.441385 -16.263588 6.738407 25.833489 9.437027 -7.954754 -17.025176 -13.055353 9.698886 30.411917 13.474400 0.910940 -8.303900 -2.675105 -24.644094 7.672473 -13.045484 -19.899324 4.684407 6.037887 -1.629074 -1.182023 -4.363668 2.520773 0.537110 0.404410 -0.278560 0.396550 -14.279932 35.859634 16.899156 -78.941466 43.584054 -46.467161 -91.171628 28.718781 -20.730242 2.182858 -0.372722 -0.458050 0.687640 0.319520 0.058360 
1.675590 12.654570 -1.650920 -55.494407 23.987142 -39.808481 -15.434858 7.454023 6.141935 -10.438336 -21.041394 -62.703820 23.178159 1.436837 88.649304 1.648357 15.445252 -0.222373 0.297850 0.042990 -0.138310 19.123374 -6.193720 5.759527 -42.016123 5.578988 -43.357634 60.853456 -12.587568 12.610110 -1.327957 -8.478375 1.594475 0.239750 1.052580 0.255290 -4.285991 0.794494 -10.825138 11.203804 -0.629527 42.940128 -17.521805 7.378040 26.184376 10.422529 -8.758644 -16.284118 -14.579897 11.019965 31.755603 10.068260 1.275020 -6.930740 -2.257176 -22.512396 7.372807 -18.020200 -19.703269 5.271334 9.734874 -1.398272 -1.350856 -4.436758 2.614989 0.460110 0.469250 -0.337360 0.439200 -16.549713 35.060360 15.161213 -77.803643 45.824153 -51.756331 -87.380939 32.043236 -24.696196 2.122104 -0.661135 -0.481750 0.729730 0.276590 0.046320 
1.668390 12.581530 -1.627050 -52.914181 22.843171 -36.326198 -15.476231 6.671650 6.452634 -11.268388 -24.236410 -70.802410 41.904970 -15.496801 94.929587 2.484666 19.041535 -1.011706 0.231770 -0.023770 -0.215520 19.267463 -5.338117 6.250885 -46.683566 5.398906 -44.134142 68.330842 -6.544389 4.119473 -1.258780 -8.061139 1.765318 0.294600 1.187820 0.230530 -4.270343 0.963973 -11.286800 10.769431 0.447991 39.688561 -18.458208 8.538175 24.761944 10.784809 -8.521814 -15.060909 -13.816094 11.660595 33.089646 8.570190 0.724590 -5.021500 -4.255129 -22.665015 7.705815 -18.894509 -18.366634 4.880735 11.499008 -1.769689 -1.538784 -4.588536 2.545595 0.411010 0.589210 -0.466670 0.415570 -15.644803 35.669750 11.063532 -71.395702 51.192077 -52.930505 -83.194227 38.018717 -29.000391 2.088411 -0.893693 -0.586400 0.816540 0.375050 0.032990 
1.691540 12.505990 -1.584930 -48.868946 21.840280 -34.171774 -15.520823 6.346823 6.122671 -12.663650 -26.331927 -71.633782 61.646471 -28.503680 86.915158 3.333349 22.286321 -1.625637 0.243890 -0.072850 -0.095880 19.303045 -4.578311 7.070789 -53.142814 5.638562 -41.865637 80.828700 1.557974 -3.846749 -1.333590 -7.490214 1.946024 0.259690 1.075010 0.246490 -4.130970 0.819072 -11.625772 8.501856 3.158739 38.755426 -18.444426 10.404510 21.306701 11.252428 -7.210445 -13.190989 -11.015710 11.578031 37.887425 6.889980 1.263330 -5.090660 -6.248029 -23.994910 9.445529 -20.278991 -16.099368 4.034038 13.120487 -2.162240 -1.623335 -4.516364 2.559263 0.490350 0.542770 -0.412060 0.345990 -15.361951 36.815562 4.173903 -53.647426 58.414141 -43.918988 -81.079771 44.516532 -33.309697 2.221141 -0.974166 -0.588160 0.754670 0.364780 -0.046510 
